# ProBuilder 5.0.6
# https://unity3d.com/unity/features/worldbuilding/probuilder
# 17.11.2022 20:30:12

mtllib ./Plane.mtl
o Plane

g Plane
v 0.3 0 -0.2
v 0.3 0 -0.1428571
v 0.2142857 0 -0.2
v 0.2142857 0 -0.1428571
v 0.3 0 -0.08571429
v 0.2142857 0 -0.08571429
v 0.3 0 -0.02857143
v 0.2142857 0 -0.02857143
v 0.3 0 0.02857143
v 0.2142857 0 0.02857143
v 0.3 0 0.08571429
v 0.2142857 0 0.08571429
v 0.3 0 0.1428571
v 0.2142857 0 0.1428571
v 0.3 0 0.2
v 0.2142857 0 0.2
v 0.1285714 0 -0.2
v 0.1285714 0 -0.1428571
v 0.1285714 0 -0.08571429
v 0.1285714 0 -0.02857143
v 0.1285714 0 0.02857143
v 0.1285714 0 0.08571429
v 0.1285714 0 0.1428571
v 0.1285714 0 0.2
v 0.04285715 0 -0.2
v 0.04285715 0 -0.1428571
v 0.04285715 0 -0.08571429
v 0.04285715 0 -0.02857143
v 0.04285715 0 0.02857143
v 0.04285715 0 0.08571429
v 0.04285715 0 0.1428571
v 0.04285715 0 0.2
v -0.04285715 0 -0.2
v -0.04285715 0 -0.1428571
v -0.04285715 0 -0.08571429
v -0.04285715 0 -0.02857143
v -0.04285715 0 0.02857143
v -0.04285715 0 0.08571429
v -0.04285715 0 0.1428571
v -0.04285715 0 0.2
v -0.1285714 0 -0.2
v -0.1285714 0 -0.1428571
v -0.1285714 0 -0.08571429
v -0.1285714 0 -0.02857143
v -0.1285714 0 0.02857143
v -0.1285714 0 0.08571429
v -0.1285714 0 0.1428571
v -0.1285714 0 0.2
v -0.2142857 0 -0.2
v -0.2142857 0 -0.1428571
v -0.2142857 0 -0.08571429
v -0.2142857 0 -0.02857143
v -0.2142857 0 0.02857143
v -0.2142857 0 0.08571429
v -0.2142857 0 0.1428571
v -0.2142857 0 0.2
v -0.3 0 -0.2
v -0.3 0 -0.1428571
v -0.3 0 -0.08571429
v -0.3 0 -0.02857143
v -0.3 0 0.02857143
v -0.3 0 0.08571429
v -0.3 0 0.1428571
v -0.3 0 0.2

vt -0.3 -0.2
vt -0.3 -0.1428571
vt -0.2142857 -0.2
vt -0.2142857 -0.1428571
vt -0.3 -0.08571429
vt -0.2142857 -0.08571429
vt -0.3 -0.02857143
vt -0.2142857 -0.02857143
vt -0.3 0.02857143
vt -0.2142857 0.02857143
vt -0.3 0.08571429
vt -0.2142857 0.08571429
vt -0.3 0.1428571
vt -0.2142857 0.1428571
vt -0.3 0.2
vt -0.2142857 0.2
vt -0.1285714 -0.2
vt -0.1285714 -0.1428571
vt -0.1285714 -0.08571429
vt -0.1285714 -0.02857143
vt -0.1285714 0.02857143
vt -0.1285714 0.08571429
vt -0.1285714 0.1428571
vt -0.1285714 0.2
vt -0.04285715 -0.2
vt -0.04285715 -0.1428571
vt -0.04285715 -0.08571429
vt -0.04285715 -0.02857143
vt -0.04285715 0.02857143
vt -0.04285715 0.08571429
vt -0.04285715 0.1428571
vt -0.04285715 0.2
vt 0.04285715 -0.2
vt 0.04285715 -0.1428571
vt 0.04285715 -0.08571429
vt 0.04285715 -0.02857143
vt 0.04285715 0.02857143
vt 0.04285715 0.08571429
vt 0.04285715 0.1428571
vt 0.04285715 0.2
vt 0.1285714 -0.2
vt 0.1285714 -0.1428571
vt 0.1285714 -0.08571429
vt 0.1285714 -0.02857143
vt 0.1285714 0.02857143
vt 0.1285714 0.08571429
vt 0.1285714 0.1428571
vt 0.1285714 0.2
vt 0.2142857 -0.2
vt 0.2142857 -0.1428571
vt 0.2142857 -0.08571429
vt 0.2142857 -0.02857143
vt 0.2142857 0.02857143
vt 0.2142857 0.08571429
vt 0.2142857 0.1428571
vt 0.2142857 0.2
vt 0.3 -0.2
vt 0.3 -0.1428571
vt 0.3 -0.08571429
vt 0.3 -0.02857143
vt 0.3 0.02857143
vt 0.3 0.08571429
vt 0.3 0.1428571
vt 0.3 0.2

vn 0 1 0

usemtl Lit
f 3/3/1 2/2/1 1/1/1
f 3/3/1 4/4/1 2/2/1
f 4/4/1 5/5/1 2/2/1
f 4/4/1 6/6/1 5/5/1
f 6/6/1 7/7/1 5/5/1
f 6/6/1 8/8/1 7/7/1
f 8/8/1 9/9/1 7/7/1
f 8/8/1 10/10/1 9/9/1
f 10/10/1 11/11/1 9/9/1
f 10/10/1 12/12/1 11/11/1
f 12/12/1 13/13/1 11/11/1
f 12/12/1 14/14/1 13/13/1
f 14/14/1 15/15/1 13/13/1
f 14/14/1 16/16/1 15/15/1
f 17/17/1 4/4/1 3/3/1
f 17/17/1 18/18/1 4/4/1
f 18/18/1 6/6/1 4/4/1
f 18/18/1 19/19/1 6/6/1
f 19/19/1 8/8/1 6/6/1
f 19/19/1 20/20/1 8/8/1
f 20/20/1 10/10/1 8/8/1
f 20/20/1 21/21/1 10/10/1
f 21/21/1 12/12/1 10/10/1
f 21/21/1 22/22/1 12/12/1
f 22/22/1 14/14/1 12/12/1
f 22/22/1 23/23/1 14/14/1
f 23/23/1 16/16/1 14/14/1
f 23/23/1 24/24/1 16/16/1
f 25/25/1 18/18/1 17/17/1
f 25/25/1 26/26/1 18/18/1
f 26/26/1 19/19/1 18/18/1
f 26/26/1 27/27/1 19/19/1
f 27/27/1 20/20/1 19/19/1
f 27/27/1 28/28/1 20/20/1
f 28/28/1 21/21/1 20/20/1
f 28/28/1 29/29/1 21/21/1
f 29/29/1 22/22/1 21/21/1
f 29/29/1 30/30/1 22/22/1
f 30/30/1 23/23/1 22/22/1
f 30/30/1 31/31/1 23/23/1
f 31/31/1 24/24/1 23/23/1
f 31/31/1 32/32/1 24/24/1
f 33/33/1 26/26/1 25/25/1
f 33/33/1 34/34/1 26/26/1
f 34/34/1 27/27/1 26/26/1
f 34/34/1 35/35/1 27/27/1
f 35/35/1 28/28/1 27/27/1
f 35/35/1 36/36/1 28/28/1
f 36/36/1 29/29/1 28/28/1
f 36/36/1 37/37/1 29/29/1
f 37/37/1 30/30/1 29/29/1
f 37/37/1 38/38/1 30/30/1
f 38/38/1 31/31/1 30/30/1
f 38/38/1 39/39/1 31/31/1
f 39/39/1 32/32/1 31/31/1
f 39/39/1 40/40/1 32/32/1
f 41/41/1 34/34/1 33/33/1
f 41/41/1 42/42/1 34/34/1
f 42/42/1 35/35/1 34/34/1
f 42/42/1 43/43/1 35/35/1
f 43/43/1 36/36/1 35/35/1
f 43/43/1 44/44/1 36/36/1
f 44/44/1 37/37/1 36/36/1
f 44/44/1 45/45/1 37/37/1
f 45/45/1 38/38/1 37/37/1
f 45/45/1 46/46/1 38/38/1
f 46/46/1 39/39/1 38/38/1
f 46/46/1 47/47/1 39/39/1
f 47/47/1 40/40/1 39/39/1
f 47/47/1 48/48/1 40/40/1
f 49/49/1 42/42/1 41/41/1
f 49/49/1 50/50/1 42/42/1
f 50/50/1 43/43/1 42/42/1
f 50/50/1 51/51/1 43/43/1
f 51/51/1 44/44/1 43/43/1
f 51/51/1 52/52/1 44/44/1
f 52/52/1 45/45/1 44/44/1
f 52/52/1 53/53/1 45/45/1
f 53/53/1 46/46/1 45/45/1
f 53/53/1 54/54/1 46/46/1
f 54/54/1 47/47/1 46/46/1
f 54/54/1 55/55/1 47/47/1
f 55/55/1 48/48/1 47/47/1
f 55/55/1 56/56/1 48/48/1
f 57/57/1 50/50/1 49/49/1
f 57/57/1 58/58/1 50/50/1
f 58/58/1 51/51/1 50/50/1
f 58/58/1 59/59/1 51/51/1
f 59/59/1 52/52/1 51/51/1
f 59/59/1 60/60/1 52/52/1
f 60/60/1 53/53/1 52/52/1
f 60/60/1 61/61/1 53/53/1
f 61/61/1 54/54/1 53/53/1
f 61/61/1 62/62/1 54/54/1
f 62/62/1 55/55/1 54/54/1
f 62/62/1 63/63/1 55/55/1
f 63/63/1 56/56/1 55/55/1
f 63/63/1 64/64/1 56/56/1

