# ProBuilder 5.0.4
# https://unity3d.com/unity/features/worldbuilding/probuilder
# 15.05.2022 11:31:47

mtllib ./6SideCone.mtl
o 6SideCone

g Cone
v -5.5 0.5 0
v -2.75 0.5 -4.76314
v 0 -0.5 0
v 0 0.5 0
v 2.75 0.5 -4.76314
v 5.5 0.5 4.808253E-07
v 2.75 0.5 4.76314
v -2.75 0.5 4.76314

vt 11 9.578622
vt 0 9.578622
vt 5.5 0
vt 2.75 -4.76314
vt 0 0
vt -2.75 -4.76314
vt -5.5 4.808253E-07
vt -2.75 4.76314
vt 2.75 4.76314

vn -0.1788854 -0.9838699 3.745106E-09
vn -0.08944272 -0.9838699 -0.1549193
vn 2.53767E-09 -1 1.395719E-08
vn 0 1 0
vn 0.08944272 -0.9838699 -0.1549193
vn 0.1788854 -0.9838699 1.872553E-08
vn 0.08944272 -0.9838699 0.1549193
vn -0.08944272 -0.9838699 0.1549193

usemtl Lit
f 1/1/1 2/2/2 3/3/3
f 4/5/4 2/4/4 1/3/4
f 2/1/2 5/2/5 3/3/3
f 4/5/4 5/6/4 2/4/4
f 5/1/5 6/2/6 3/3/3
f 4/5/4 6/7/4 5/6/4
f 6/1/6 7/2/7 3/3/3
f 4/5/4 7/8/4 6/7/4
f 7/1/7 8/2/8 3/3/3
f 4/5/4 8/9/4 7/8/4
f 8/1/8 1/2/1 3/3/3
f 4/5/4 1/3/4 8/9/4

