# ProBuilder 5.0.4
# https://unity3d.com/unity/features/worldbuilding/probuilder
# 07.05.2022 9:30:26

mtllib ./Cone.mtl
o Cone

g Cone
v -0.125 -0.4 0
v -0.0625 -0.4 -0.1082532
v 0 0.4 0
v 0 -0.4 0
v 0.06250001 -0.4 -0.1082532
v 0.125 -0.4 1.092785E-08
v 0.06249999 -0.4 0.1082532
v -0.06249999 -0.4 0.1082532

vt 0.25 0
vt 0 0
vt 0.125 0.8287792
vt -0.125 0
vt -0.0625 -0.1082532
vt 0.06250001 -0.1082532
vt 0.125 1.092785E-08
vt 0.06249999 0.1082532
vt -0.06249999 0.1082532

vn -0.9880121 0.1543769 5.146514E-08
vn -0.494006 0.1543769 -0.8556435
vn 1.481659E-07 1 2.963318E-07
vn 0 -1 0
vn 0.4940061 0.1543769 -0.8556435
vn 0.9880121 0.1543769 8.577522E-08
vn 0.4940059 0.1543769 0.8556435
vn -0.4940059 0.1543769 0.8556435

usemtl Lit
f 3/3/3 2/2/2 1/1/1
f 1/4/4 2/5/4 4/2/4
f 3/3/3 5/2/5 2/1/2
f 2/5/4 5/6/4 4/2/4
f 3/3/3 6/2/6 5/1/5
f 5/6/4 6/7/4 4/2/4
f 3/3/3 7/2/7 6/1/6
f 6/7/4 7/8/4 4/2/4
f 3/3/3 8/2/8 7/1/7
f 7/8/4 8/9/4 4/2/4
f 3/3/3 1/2/1 8/1/8
f 8/9/4 1/4/4 4/2/4

